<svg xmlns="http://www.w3.org/2000/svg" viewBox="0 0 800 1000" preserveAspectRatio="xMidYMid slice" role="img" aria-label="">
  <defs>
    <linearGradient id="sky" x1="0" y1="0" x2="0" y2="1">
      <stop offset="0%" stop-color="#cfd9c4"/>
      <stop offset="100%" stop-color="#e8dfc9"/>
    </linearGradient>
    <linearGradient id="far" x1="0" y1="0" x2="0" y2="1">
      <stop offset="0%" stop-color="#9aab8e"/>
      <stop offset="100%" stop-color="#7d9070"/>
    </linearGradient>
    <linearGradient id="mid" x1="0" y1="0" x2="0" y2="1">
      <stop offset="0%" stop-color="#6d8560"/>
      <stop offset="100%" stop-color="#4f6845"/>
    </linearGradient>
    <linearGradient id="near" x1="0" y1="0" x2="0" y2="1">
      <stop offset="0%" stop-color="#43593a"/>
      <stop offset="100%" stop-color="#2b3d26"/>
    </linearGradient>
  </defs>
  <rect width="800" height="1000" fill="url(#sky)"/>
  <circle cx="620" cy="150" r="58" fill="#f2efe6" opacity="0.85"/>
  <path d="M0 430 C 120 360, 240 400, 360 370 C 480 340, 600 380, 800 330 L800 1000 L0 1000 Z" fill="url(#far)"/>
  <path d="M0 560 C 150 470, 300 540, 440 500 C 580 460, 700 520, 800 470 L800 1000 L0 1000 Z" fill="url(#mid)"/>
  <path d="M0 700 C 160 620, 320 690, 470 650 C 620 610, 720 670, 800 640 L800 1000 L0 1000 Z" fill="url(#near)"/>
  <g stroke="#f2efe6" stroke-width="2" opacity="0.5">
    <line x1="120" y1="560" x2="120" y2="640"/><line x1="200" y1="590" x2="200" y2="665"/>
    <line x1="290" y1="565" x2="290" y2="645"/><line x1="380" y1="600" x2="380" y2="675"/>
    <line x1="470" y1="585" x2="470" y2="660"/><line x1="560" y1="615" x2="560" y2="690"/>
    <line x1="650" y1="600" x2="650" y2="675"/>
  </g>
  <g fill="#f2efe6" opacity="0.85">
    <rect x="114" y="552" width="12" height="12" rx="2"/><rect x="194" y="582" width="12" height="12" rx="2"/>
    <rect x="284" y="557" width="12" height="12" rx="2"/><rect x="374" y="592" width="12" height="12" rx="2"/>
    <rect x="464" y="577" width="12" height="12" rx="2"/><rect x="554" y="607" width="12" height="12" rx="2"/>
    <rect x="644" y="592" width="12" height="12" rx="2"/>
  </g>
</svg>
